<mxfile host="app.diagrams.net" modified="2022-03-21T09:35:21.843Z" agent="5.0 (Windows NT 10.0; Win64; x64) AppleWebKit/537.36 (KHTML, like Gecko) Chrome/99.0.4844.74 Safari/537.36 Edg/99.0.1150.46" etag="XOLc898_ayK9buo7eZ2o" version="17.1.3" type="github">
  <diagram id="THSKWZr-3de4Fl6N3ZNG" name="Page-1">
    <mxGraphModel dx="448" dy="886" grid="1" gridSize="10" guides="1" tooltips="1" connect="1" arrows="1" fold="1" page="1" pageScale="1" pageWidth="850" pageHeight="1100" math="0" shadow="0">
      <root>
        <mxCell id="0" />
        <mxCell id="1" parent="0" />
        <mxCell id="dqfIOHFW_cNBYNtolKn8-1" value="" style="rounded=0;whiteSpace=wrap;html=1;" vertex="1" parent="1">
          <mxGeometry x="110" y="380" width="120" height="180" as="geometry" />
        </mxCell>
        <mxCell id="dqfIOHFW_cNBYNtolKn8-2" value="扶뒬못 Home" style="text;html=1;strokeColor=none;fillColor=none;align=left;verticalAlign=middle;whiteSpace=wrap;rounded=0;" vertex="1" parent="1">
          <mxGeometry x="110" y="350" width="80" height="30" as="geometry" />
        </mxCell>
        <mxCell id="dqfIOHFW_cNBYNtolKn8-3" value="" style="rounded=0;whiteSpace=wrap;html=1;" vertex="1" parent="1">
          <mxGeometry x="110" y="670" width="120" height="180" as="geometry" />
        </mxCell>
        <mxCell id="dqfIOHFW_cNBYNtolKn8-4" value="扶뒬못 Home" style="text;html=1;strokeColor=none;fillColor=none;align=left;verticalAlign=middle;whiteSpace=wrap;rounded=0;" vertex="1" parent="1">
          <mxGeometry x="110" y="640" width="80" height="30" as="geometry" />
        </mxCell>
      </root>
    </mxGraphModel>
  </diagram>
</mxfile>
